# xmcd
#
# Track frame offsets: 
#        150
#        28800
#        59437
#        79512
#        96037
#        121962
#        153425
#        174712
#        206250
#        231562
#        250237
#
# Disc length: 3706 seconds
#
# Revision: 0
# Processed by: cddbd v1.5.2PL0 Copyright (c) Steve Scherf et al.
# Submitted via: ExactAudioCopyFreeDBPlugin 1.0
#
DISCID=8e0e780b
DTITLE=Various Artist - Hi Fi Jazz
DYEAR=1900
DGENRE=Jazz
TTITLE0=Lonely Hearts
TTITLE1=La Nina
TTITLE2=Azul Serape
TTITLE3=Come Rain Or Come Shine
TTITLE4=Sad Nostalgia
TTITLE5=Dado's Blues
TTITLE6=Since I Fell For You
TTITLE7=Due Duel
TTITLE8=Noites de Madrid
TTITLE9=Cascada
TTITLE10=Autumn Leaves
EXTD=
EXTT0=
EXTT1=
EXTT2=
EXTT3=
EXTT4=
EXTT5=
EXTT6=
EXTT7=
EXTT8=
EXTT9=
EXTT10=
PLAYORDER=
